<?xml version="1.0" encoding="UTF-8"?><svg id="_레이어_1" xmlns="http://www.w3.org/2000/svg" xmlns:xlink="http://www.w3.org/1999/xlink" viewBox="0 0 356.59 105.42"><defs><style>.cls-1{filter:url(#drop-shadow-1);}</style><filter id="drop-shadow-1" filterUnits="userSpaceOnUse"><feOffset dx="1" dy="2"/><feGaussianBlur result="blur" stdDeviation="3"/><feFlood flood-color="#555" flood-opacity=".6"/><feComposite in2="blur" operator="in"/><feComposite in="SourceGraphic"/></filter></defs><g><path d="M184.41,.13h1.46V10.36h-1.46V.13Z"/><path d="M189.39,3.62v1.54l.07-.12c.64-1.04,1.29-1.56,1.93-1.56,.5,0,1.03,.25,1.57,.76l-.7,1.17c-.46-.44-.89-.66-1.29-.66-.43,0-.8,.21-1.12,.62-.32,.41-.47,.9-.47,1.46v3.52h-1.34V3.62h1.34Z"/><path d="M196.75,3.61c1.03,0,1.88,.33,2.56,.99,.68,.66,1.02,1.49,1.02,2.49s-.34,1.78-1.03,2.42c-.69,.64-1.56,.96-2.6,.96s-1.86-.33-2.53-.98c-.68-.65-1.02-1.47-1.02-2.44s.34-1.81,1.03-2.46c.69-.66,1.55-.99,2.58-.99Zm-.07,1.2c-.64,0-1.16,.21-1.57,.63s-.62,.96-.62,1.6,.21,1.17,.63,1.58c.42,.41,.96,.61,1.62,.61s1.19-.21,1.61-.62c.42-.41,.63-.94,.63-1.58s-.22-1.17-.65-1.59-.98-.63-1.64-.63Z"/><path d="M203.14,3.62v.86c.6-.66,1.27-.99,2.03-.99,.42,0,.81,.11,1.17,.33,.36,.22,.64,.51,.82,.89,.19,.38,.28,.98,.28,1.8v3.85h-1.33v-3.84c0-.69-.1-1.18-.31-1.48-.21-.3-.56-.44-1.05-.44-.63,0-1.17,.32-1.6,.94v4.81h-1.36V3.62h1.36Z"/><path d="M219.97,10.36l-1.19-1.4c-.1,.1-.28,.25-.53,.45h-.01c-.35,.3-.78,.55-1.29,.76s-.99,.31-1.44,.31c-.71,0-1.31-.23-1.8-.69-.49-.46-.74-1.02-.74-1.69,0-.48,.12-.91,.36-1.3,.24-.39,.64-.78,1.18-1.18l.02-.02c.32-.24,.6-.42,.83-.55-.77-.82-1.16-1.62-1.16-2.37,0-.7,.24-1.26,.71-1.7,.47-.43,1.09-.65,1.85-.65s1.35,.21,1.83,.64c.48,.43,.72,.97,.72,1.63,0,.89-.6,1.76-1.79,2.61l-.1,.08,1.44,1.64c.42-.46,.79-1.01,1.1-1.65h1.46c-.35,.91-.91,1.8-1.67,2.68l2.08,2.4h-1.86Zm-2.43-2.12l.33-.3-1.66-1.92-.64,.45c-.76,.51-1.14,1.03-1.14,1.56,0,.29,.12,.54,.37,.74,.25,.21,.55,.31,.9,.31,.27,0,.58-.08,.93-.23,.34-.16,.65-.36,.92-.61Zm-.96-3.95l.56-.4c.52-.37,.78-.79,.78-1.28,0-.3-.11-.55-.33-.75-.22-.2-.49-.3-.82-.3s-.59,.09-.8,.28c-.21,.19-.31,.42-.31,.7s.08,.56,.25,.88c.16,.32,.39,.61,.67,.87Z"/><path d="M229.73,6.08l-1.11-.68c-.7-.43-1.2-.85-1.49-1.26-.3-.41-.44-.89-.44-1.42,0-.81,.28-1.46,.84-1.96,.56-.5,1.29-.75,2.18-.75s1.64,.24,2.35,.72v1.66c-.74-.71-1.53-1.06-2.38-1.06-.48,0-.87,.11-1.18,.33-.31,.22-.46,.5-.46,.85,0,.31,.11,.59,.34,.86s.59,.55,1.09,.84l1.12,.66c1.25,.75,1.87,1.69,1.87,2.85,0,.82-.27,1.49-.82,2-.55,.51-1.26,.77-2.14,.77-1.01,0-1.93-.31-2.76-.93v-1.86c.79,1,1.71,1.5,2.75,1.5,.46,0,.84-.13,1.15-.38,.31-.26,.46-.58,.46-.96,0-.62-.45-1.21-1.35-1.77Z"/><path d="M232.94,4.69l2.5-2.46v1.39h2.13v1.2h-2.13v3.3c0,.77,.32,1.16,.96,1.16,.48,0,.98-.16,1.52-.48v1.25c-.51,.29-1.07,.43-1.68,.43s-1.12-.18-1.52-.54c-.13-.11-.23-.23-.31-.36-.08-.13-.15-.31-.21-.53-.06-.22-.08-.63-.08-1.24v-2.99h-1.17v-.13Z"/><path d="M244.63,7.11h-4.74c.03,.64,.25,1.16,.65,1.54,.4,.38,.91,.57,1.54,.57,.88,0,1.69-.27,2.43-.82v1.3c-.41,.27-.82,.47-1.22,.59-.4,.12-.88,.18-1.42,.18-.74,0-1.34-.15-1.8-.46-.46-.31-.83-.72-1.1-1.24-.28-.52-.41-1.12-.41-1.81,0-1.03,.29-1.86,.87-2.5,.58-.64,1.34-.96,2.26-.96s1.61,.31,2.14,.94,.8,1.46,.8,2.51v.17Zm-4.71-.8h3.39c-.04-.53-.19-.94-.48-1.23-.28-.29-.66-.43-1.14-.43s-.87,.14-1.18,.43c-.3,.29-.5,.7-.6,1.23Z"/><path d="M251.81,7.11h-4.74c.03,.64,.25,1.16,.65,1.54,.4,.38,.91,.57,1.54,.57,.88,0,1.69-.27,2.43-.82v1.3c-.41,.27-.82,.47-1.22,.59-.4,.12-.88,.18-1.42,.18-.74,0-1.34-.15-1.8-.46-.46-.31-.83-.72-1.1-1.24-.28-.52-.41-1.12-.41-1.81,0-1.03,.29-1.86,.87-2.5,.58-.64,1.34-.96,2.26-.96s1.61,.31,2.14,.94,.8,1.46,.8,2.51v.17Zm-4.71-.8h3.39c-.04-.53-.19-.94-.48-1.23-.28-.29-.66-.43-1.14-.43s-.87,.14-1.18,.43c-.3,.29-.5,.7-.6,1.23Z"/><path d="M253.28,.13h1.33V10.36h-1.33V.13Z"/></g><g><path d="M64.91,91.62h1.94l-5.77,13.7h-.44l-5.88-13.7h1.97l4.1,9.58,4.08-9.58Z"/><path d="M73.76,100.93h-6.32c.05,.86,.33,1.54,.86,2.05s1.22,.76,2.06,.76c1.17,0,2.25-.36,3.24-1.09v1.74c-.55,.36-1.09,.62-1.63,.78s-1.17,.23-1.89,.23c-.99,0-1.79-.21-2.4-.62s-1.1-.96-1.47-1.66-.55-1.5-.55-2.41c0-1.37,.39-2.48,1.16-3.33s1.78-1.28,3.02-1.28,2.14,.42,2.85,1.25,1.06,1.95,1.06,3.35v.22Zm-6.28-1.06h4.52c-.05-.71-.26-1.26-.63-1.64s-.89-.58-1.52-.58-1.16,.19-1.57,.58-.67,.93-.8,1.64Z"/><path d="M74.42,97.71l3.34-3.28v1.86h2.84v1.6h-2.84v4.4c0,1.03,.43,1.54,1.28,1.54,.64,0,1.31-.21,2.02-.63v1.66c-.68,.38-1.43,.58-2.24,.58s-1.49-.24-2.03-.71c-.17-.14-.31-.3-.42-.48s-.2-.41-.28-.7-.11-.84-.11-1.66v-3.98h-1.56v-.18Z"/><path d="M90,100.93h-6.32c.05,.86,.33,1.54,.86,2.05s1.22,.76,2.06,.76c1.17,0,2.25-.36,3.24-1.09v1.74c-.55,.36-1.09,.62-1.63,.78s-1.17,.23-1.89,.23c-.99,0-1.79-.21-2.4-.62s-1.1-.96-1.47-1.66-.55-1.5-.55-2.41c0-1.37,.39-2.48,1.16-3.33s1.78-1.28,3.02-1.28,2.14,.42,2.85,1.25,1.06,1.95,1.06,3.35v.22Zm-6.28-1.06h4.52c-.05-.71-.26-1.26-.63-1.64s-.89-.58-1.52-.58-1.16,.19-1.57,.58-.67,.93-.8,1.64Z"/><path d="M93.83,96.28v2.06l.1-.16c.86-1.39,1.72-2.08,2.58-2.08,.67,0,1.37,.34,2.1,1.02l-.94,1.56c-.62-.59-1.19-.88-1.72-.88-.57,0-1.07,.27-1.49,.82s-.63,1.19-.63,1.94v4.7h-1.79v-8.98h1.79Z"/><path d="M105.49,99.86v3.82c0,.31,.1,.46,.31,.46s.55-.16,1.01-.48v1.08c-.4,.26-.73,.44-.97,.53s-.5,.14-.77,.14c-.76,0-1.21-.3-1.35-.9-.75,.59-1.56,.88-2.41,.88-.62,0-1.15-.21-1.56-.62s-.62-.93-.62-1.56c0-.57,.2-1.07,.61-1.52s.98-.8,1.73-1.06l2.28-.78v-.48c0-1.08-.54-1.62-1.62-1.62-.97,0-1.91,.5-2.83,1.5v-1.94c.69-.81,1.68-1.22,2.98-1.22,.97,0,1.75,.25,2.33,.76,.2,.16,.37,.38,.53,.65s.26,.54,.3,.81,.06,.78,.06,1.54Zm-1.75,3.62v-2.67l-1.19,.46c-.61,.24-1.03,.48-1.28,.73s-.38,.55-.38,.91,.12,.67,.36,.91,.54,.35,.92,.35c.57,0,1.09-.23,1.57-.69Z"/><path d="M110.15,96.28v1.14c.79-.88,1.7-1.32,2.71-1.32,.56,0,1.08,.14,1.56,.43s.85,.69,1.1,1.19,.38,1.3,.38,2.4v5.14h-1.78v-5.12c0-.92-.14-1.57-.42-1.97s-.75-.59-1.41-.59c-.84,0-1.55,.42-2.14,1.26v6.42h-1.82v-8.98h1.82Z"/><path d="M127.56,99.55l-1.48-.9c-.93-.57-1.59-1.13-1.99-1.68s-.59-1.18-.59-1.9c0-1.07,.37-1.95,1.12-2.62s1.71-1.01,2.91-1.01,2.19,.32,3.14,.96v2.22c-.98-.95-2.04-1.42-3.17-1.42-.64,0-1.16,.15-1.57,.44s-.62,.67-.62,1.13c0,.41,.15,.79,.45,1.15s.79,.73,1.46,1.12l1.49,.88c1.66,.99,2.5,2.26,2.5,3.8,0,1.09-.37,1.98-1.1,2.67s-1.68,1.03-2.86,1.03c-1.35,0-2.58-.41-3.68-1.24v-2.48c1.05,1.34,2.28,2,3.66,2,.61,0,1.12-.17,1.53-.51s.61-.77,.61-1.28c0-.83-.6-1.62-1.8-2.36Z"/><path d="M137.39,96.26c1.37,0,2.5,.44,3.41,1.32s1.36,1.99,1.36,3.33-.46,2.37-1.38,3.23-2.07,1.28-3.47,1.28-2.47-.43-3.38-1.3-1.36-1.96-1.36-3.26,.46-2.41,1.37-3.29,2.06-1.31,3.44-1.31Zm-.1,1.6c-.85,0-1.55,.28-2.1,.84s-.82,1.27-.82,2.14,.28,1.56,.84,2.1,1.28,.82,2.16,.82,1.59-.28,2.14-.83,.83-1.25,.83-2.11-.29-1.56-.87-2.12-1.31-.84-2.19-.84Z"/><path d="M144.17,91.62h1.78v13.64h-1.78v-13.64Z"/><path d="M154.24,105.27v-1.15c-.38,.41-.81,.73-1.29,.96s-.97,.34-1.45,.34c-.57,0-1.09-.14-1.57-.42s-.84-.67-1.08-1.15-.37-1.29-.37-2.42v-5.15h1.78v5.12c0,.94,.13,1.6,.41,1.98s.74,.56,1.42,.56c.85,0,1.57-.41,2.16-1.24v-6.42h1.78v8.98h-1.78Z"/><path d="M157.25,97.71l3.34-3.28v1.86h2.84v1.6h-2.84v4.4c0,1.03,.43,1.54,1.28,1.54,.64,0,1.31-.21,2.02-.63v1.66c-.68,.38-1.43,.58-2.24,.58s-1.49-.24-2.03-.71c-.17-.14-.31-.3-.42-.48s-.2-.41-.28-.7-.11-.84-.11-1.66v-3.98h-1.56v-.18Z"/><path d="M166.09,92.5c.29,0,.54,.1,.75,.3s.31,.45,.31,.74-.1,.53-.31,.74-.46,.31-.75,.31c-.27,0-.51-.11-.72-.32s-.31-.46-.31-.74,.1-.52,.31-.73,.45-.32,.72-.32Zm-.88,3.78h1.78v8.98h-1.78v-8.98Z"/><path d="M173.86,96.26c1.37,0,2.5,.44,3.41,1.32s1.36,1.99,1.36,3.33-.46,2.37-1.38,3.23-2.07,1.28-3.47,1.28-2.47-.43-3.38-1.3-1.36-1.96-1.36-3.26,.46-2.41,1.37-3.29,2.06-1.31,3.44-1.31Zm-.1,1.6c-.85,0-1.55,.28-2.1,.84s-.82,1.27-.82,2.14,.28,1.56,.84,2.1,1.28,.82,2.16,.82,1.59-.28,2.14-.83,.83-1.25,.83-2.11-.29-1.56-.87-2.12-1.31-.84-2.19-.84Z"/><path d="M182.37,96.28v1.14c.79-.88,1.7-1.32,2.71-1.32,.56,0,1.08,.14,1.56,.43s.85,.69,1.1,1.19,.38,1.3,.38,2.4v5.14h-1.78v-5.12c0-.92-.14-1.57-.42-1.97s-.75-.59-1.41-.59c-.84,0-1.55,.42-2.14,1.26v6.42h-1.82v-8.98h1.82Z"/><path d="M190.15,104.62v-1.91c.5,.35,1.01,.64,1.54,.85s.96,.33,1.32,.33,.69-.09,.96-.27,.4-.4,.4-.65-.09-.48-.26-.65-.54-.42-1.12-.75c-1.15-.64-1.9-1.18-2.25-1.64s-.53-.95-.53-1.48c0-.69,.27-1.25,.81-1.69s1.23-.65,2.08-.65,1.78,.25,2.71,.74v1.76c-1.05-.64-1.92-.96-2.59-.96-.34,0-.62,.07-.83,.22s-.32,.34-.32,.58c0,.21,.1,.41,.29,.6,.19,.19,.53,.42,1.01,.68l.63,.36c1.5,.85,2.25,1.78,2.25,2.81,0,.74-.29,1.34-.86,1.81s-1.32,.71-2.22,.71c-.53,0-1.01-.06-1.43-.17s-.94-.32-1.57-.63Z"/></g><text/><g class="cls-1"><path d="M75.55,10.62L41.5,77.27h-13.48L0,10.62H18.85l16.06,40.53L56.59,10.62h18.96Z"/><path d="M115.65,57.51h-33.64c0,6.8,3.27,10.21,9.81,10.21,3.33,0,5.89-1.43,7.67-4.3h15.53c-1.24,4.09-3.06,7.25-5.47,9.49-4.36,4.06-10.21,6.08-17.53,6.08-9.31,0-16.31-2.83-21-8.5-3.52-4.23-5.27-9.39-5.27-15.48,0-7.23,2.2-13.1,6.59-17.63,4.39-4.52,10.6-6.79,18.6-6.79,9.86,0,16.91,3.59,21.14,10.76,2.38,4.04,3.56,8.74,3.56,14.09v2.05Zm-14.99-9.13c-1.13-5.11-4.16-7.67-9.08-7.67-2.72,0-4.92,.81-6.61,2.44-1.33,1.29-2.17,3.04-2.53,5.23h18.21Z"/><path d="M151.84,45.01h-9.13v32.18h-16.06V45.01h-5.27v-13.13h5.27v-13.62h16.06v13.62h9.13v13.13Z"/><path d="M206.03,60.63c0,8.43-3.99,14.03-11.96,16.8-3.32,1.14-7.37,1.71-12.16,1.71-9.41,0-16.16-2.31-20.26-6.93-2.6-2.93-3.91-6.79-3.91-11.57V31.87h16.06v25.68c0,2.83,.68,4.92,2.04,6.25,1.46,1.43,3.48,2.15,6.07,2.15s4.56-.72,6.02-2.15c1.36-1.33,2.04-3.42,2.04-6.25V31.87h16.06v28.76Z"/><path d="M253.79,61.9c0,4.82-1.73,8.76-5.18,11.82-3.87,3.45-9.33,5.18-16.36,5.18-6.22,0-12.26-1.74-18.12-5.22l5.81-11.33c4.58,3,8.83,4.49,12.76,4.49,3.34,0,5.02-1.16,5.02-3.47,0-1.2-.58-2.13-1.75-2.78-.75-.42-2.44-.93-5.07-1.51-2.96-.65-4.89-1.15-5.8-1.51-3.25-1.27-5.44-3.25-6.58-5.95-.62-1.46-.93-3.22-.93-5.27,0-3.96,1.35-7.43,4.05-10.38,3.48-3.8,8.85-5.7,16.11-5.7,5.04,0,9.94,.98,14.7,2.93l-5.42,10.35c-2.98-1.56-5.84-2.34-8.56-2.34-3.21,0-4.82,1.12-4.82,3.35,0,1.02,.65,1.84,1.95,2.46,.58,.29,2.3,.73,5.16,1.32,4.19,.88,7.27,2.28,9.25,4.2,2.5,2.41,3.75,5.53,3.75,9.38Z"/></g></svg>